# MagicaVoxel @ ephtracy

# material
mtllib ReColoredBuildingDark.mtl
usemtl palette

# normals
vn -1 0 0
vn 1 0 0
vn 0 0 1
vn 0 0 -1
vn 0 -1 0
vn 0 1 0

# texcoords
vt 0.0136719 0.5
vt 0.0214844 0.5
vt 0.0683594 0.5
vt 0.423828 0.5
vt 0.447266 0.5
vt 0.591797 0.5
vt 0.783203 0.5
vt 0.787109 0.5
vt 0.994141 0.5

# verts
v -7.5 0 8.5
v -7.5 0 -8.5
v -7.5 2 5.5
v -7.5 2 0.5
v -7.5 2 -0.5
v -7.5 2 -5.5
v -7.5 7 5.5
v -7.5 7 0.5
v -7.5 7 -0.5
v -7.5 7 -5.5
v -7.5 8 5.5
v -7.5 8 0.5
v -7.5 8 -0.5
v -7.5 8 -5.5
v -7.5 13 5.5
v -7.5 13 0.5
v -7.5 13 -0.5
v -7.5 13 -5.5
v -7.5 14 5.5
v -7.5 14 0.5
v -7.5 14 -0.5
v -7.5 14 -5.5
v -7.5 19 5.5
v -7.5 19 0.5
v -7.5 19 -0.5
v -7.5 19 -5.5
v -7.5 20 5.5
v -7.5 20 0.5
v -7.5 20 -0.5
v -7.5 20 -5.5
v -7.5 25 5.5
v -7.5 25 0.5
v -7.5 25 -0.5
v -7.5 25 -5.5
v -7.5 26 5.5
v -7.5 26 0.5
v -7.5 26 -0.5
v -7.5 26 -5.5
v -7.5 31 5.5
v -7.5 31 0.5
v -7.5 31 -0.5
v -7.5 31 -5.5
v -7.5 32 5.5
v -7.5 32 0.5
v -7.5 32 -0.5
v -7.5 32 -5.5
v -7.5 37 5.5
v -7.5 37 0.5
v -7.5 37 -0.5
v -7.5 37 -5.5
v -7.5 38 5.5
v -7.5 38 0.5
v -7.5 38 -0.5
v -7.5 38 -5.5
v -7.5 43 5.5
v -7.5 43 0.5
v -7.5 43 -0.5
v -7.5 43 -5.5
v -7.5 45 8.5
v -7.5 45 -8.5
v 10.5 0 8.5
v 10.5 0 -8.5
v 10.5 2 5.5
v 10.5 2 0.5
v 10.5 2 -0.5
v 10.5 2 -5.5
v 10.5 7 5.5
v 10.5 7 0.5
v 10.5 7 -0.5
v 10.5 7 -5.5
v 10.5 8 5.5
v 10.5 8 0.5
v 10.5 8 -0.5
v 10.5 8 -5.5
v 10.5 13 5.5
v 10.5 13 0.5
v 10.5 13 -0.5
v 10.5 13 -5.5
v 10.5 14 5.5
v 10.5 14 0.5
v 10.5 14 -0.5
v 10.5 14 -5.5
v 10.5 19 5.5
v 10.5 19 0.5
v 10.5 19 -0.5
v 10.5 19 -5.5
v 10.5 20 5.5
v 10.5 20 0.5
v 10.5 20 -0.5
v 10.5 20 -5.5
v 10.5 25 5.5
v 10.5 25 0.5
v 10.5 25 -0.5
v 10.5 25 -5.5
v 10.5 26 5.5
v 10.5 26 0.5
v 10.5 26 -0.5
v 10.5 26 -5.5
v 10.5 31 5.5
v 10.5 31 0.5
v 10.5 31 -0.5
v 10.5 31 -5.5
v 10.5 32 5.5
v 10.5 32 0.5
v 10.5 32 -0.5
v 10.5 32 -5.5
v 10.5 37 5.5
v 10.5 37 0.5
v 10.5 37 -0.5
v 10.5 37 -5.5
v 10.5 38 5.5
v 10.5 38 0.5
v 10.5 38 -0.5
v 10.5 38 -5.5
v 10.5 43 5.5
v 10.5 43 0.5
v 10.5 43 -0.5
v 10.5 43 -5.5
v 10.5 45 8.5
v 10.5 45 -8.5
v -7.5 0 8.5
v -7.5 45 8.5
v -4.5 2 8.5
v -4.5 7 8.5
v -4.5 8 8.5
v -4.5 13 8.5
v -4.5 14 8.5
v -4.5 19 8.5
v -4.5 20 8.5
v -4.5 25 8.5
v -4.5 26 8.5
v -4.5 31 8.5
v -4.5 32 8.5
v -4.5 37 8.5
v -4.5 38 8.5
v -4.5 43 8.5
v 0.5 2 8.5
v 0.5 7 8.5
v 0.5 8 8.5
v 0.5 13 8.5
v 0.5 14 8.5
v 0.5 19 8.5
v 0.5 20 8.5
v 0.5 25 8.5
v 0.5 26 8.5
v 0.5 31 8.5
v 0.5 32 8.5
v 0.5 37 8.5
v 0.5 38 8.5
v 0.5 43 8.5
v 2.5 2 8.5
v 2.5 7 8.5
v 2.5 8 8.5
v 2.5 13 8.5
v 2.5 14 8.5
v 2.5 19 8.5
v 2.5 20 8.5
v 2.5 25 8.5
v 2.5 26 8.5
v 2.5 31 8.5
v 2.5 32 8.5
v 2.5 37 8.5
v 2.5 38 8.5
v 2.5 43 8.5
v 7.5 2 8.5
v 7.5 7 8.5
v 7.5 8 8.5
v 7.5 13 8.5
v 7.5 14 8.5
v 7.5 19 8.5
v 7.5 20 8.5
v 7.5 25 8.5
v 7.5 26 8.5
v 7.5 31 8.5
v 7.5 32 8.5
v 7.5 37 8.5
v 7.5 38 8.5
v 7.5 43 8.5
v 10.5 0 8.5
v 10.5 45 8.5
v -7.5 0 -8.5
v -7.5 45 -8.5
v -4.5 2 -8.5
v -4.5 7 -8.5
v -4.5 8 -8.5
v -4.5 13 -8.5
v -4.5 14 -8.5
v -4.5 19 -8.5
v -4.5 20 -8.5
v -4.5 25 -8.5
v -4.5 26 -8.5
v -4.5 31 -8.5
v -4.5 32 -8.5
v -4.5 37 -8.5
v -4.5 38 -8.5
v -4.5 43 -8.5
v 0.5 2 -8.5
v 0.5 7 -8.5
v 0.5 8 -8.5
v 0.5 13 -8.5
v 0.5 14 -8.5
v 0.5 19 -8.5
v 0.5 20 -8.5
v 0.5 25 -8.5
v 0.5 26 -8.5
v 0.5 31 -8.5
v 0.5 32 -8.5
v 0.5 37 -8.5
v 0.5 38 -8.5
v 0.5 43 -8.5
v 2.5 2 -8.5
v 2.5 7 -8.5
v 2.5 8 -8.5
v 2.5 13 -8.5
v 2.5 14 -8.5
v 2.5 19 -8.5
v 2.5 20 -8.5
v 2.5 25 -8.5
v 2.5 26 -8.5
v 2.5 31 -8.5
v 2.5 32 -8.5
v 2.5 37 -8.5
v 2.5 38 -8.5
v 2.5 43 -8.5
v 7.5 2 -8.5
v 7.5 7 -8.5
v 7.5 8 -8.5
v 7.5 13 -8.5
v 7.5 14 -8.5
v 7.5 19 -8.5
v 7.5 20 -8.5
v 7.5 25 -8.5
v 7.5 26 -8.5
v 7.5 31 -8.5
v 7.5 32 -8.5
v 7.5 37 -8.5
v 7.5 38 -8.5
v 7.5 43 -8.5
v 10.5 0 -8.5
v 10.5 45 -8.5
v -7.5 0 8.5
v 10.5 0 8.5
v -7.5 0 -8.5
v 10.5 0 -8.5
v -7.5 45 8.5
v 10.5 45 8.5
v -7.5 45 -8.5
v 10.5 45 -8.5

# faces
f 3/7/1 2/7/1 1/7/1
f 4/7/1 2/7/1 3/7/1
f 5/7/1 2/7/1 4/7/1
f 6/7/1 2/7/1 5/7/1
f 7/7/1 3/7/1 1/7/1
f 7/1/1 4/1/1 3/1/1
f 8/7/1 5/7/1 4/7/1
f 8/1/1 4/1/1 7/1/1
f 9/1/1 6/1/1 5/1/1
f 9/7/1 5/7/1 8/7/1
f 10/7/1 2/7/1 6/7/1
f 10/1/1 6/1/1 9/1/1
f 11/7/1 9/7/1 8/7/1
f 11/7/1 8/7/1 7/7/1
f 11/7/1 10/7/1 9/7/1
f 11/7/1 7/7/1 1/7/1
f 12/7/1 10/7/1 11/7/1
f 13/7/1 10/7/1 12/7/1
f 14/7/1 2/7/1 10/7/1
f 14/7/1 10/7/1 13/7/1
f 15/7/1 11/7/1 1/7/1
f 15/6/1 12/6/1 11/6/1
f 16/7/1 13/7/1 12/7/1
f 16/6/1 12/6/1 15/6/1
f 17/6/1 14/6/1 13/6/1
f 17/7/1 13/7/1 16/7/1
f 18/7/1 2/7/1 14/7/1
f 18/6/1 14/6/1 17/6/1
f 19/7/1 15/7/1 1/7/1
f 19/7/1 17/7/1 16/7/1
f 19/7/1 18/7/1 17/7/1
f 19/7/1 16/7/1 15/7/1
f 20/7/1 18/7/1 19/7/1
f 21/7/1 18/7/1 20/7/1
f 22/7/1 2/7/1 18/7/1
f 22/7/1 18/7/1 21/7/1
f 23/7/1 19/7/1 1/7/1
f 23/8/1 20/8/1 19/8/1
f 24/7/1 21/7/1 20/7/1
f 24/8/1 20/8/1 23/8/1
f 25/8/1 22/8/1 21/8/1
f 25/7/1 21/7/1 24/7/1
f 26/7/1 2/7/1 22/7/1
f 26/8/1 22/8/1 25/8/1
f 27/7/1 23/7/1 1/7/1
f 27/7/1 25/7/1 24/7/1
f 27/7/1 26/7/1 25/7/1
f 27/7/1 24/7/1 23/7/1
f 28/7/1 26/7/1 27/7/1
f 29/7/1 26/7/1 28/7/1
f 30/7/1 2/7/1 26/7/1
f 30/7/1 26/7/1 29/7/1
f 31/7/1 27/7/1 1/7/1
f 31/1/1 28/1/1 27/1/1
f 32/7/1 29/7/1 28/7/1
f 32/1/1 28/1/1 31/1/1
f 33/1/1 30/1/1 29/1/1
f 33/7/1 29/7/1 32/7/1
f 34/7/1 2/7/1 30/7/1
f 34/1/1 30/1/1 33/1/1
f 35/7/1 31/7/1 1/7/1
f 35/7/1 33/7/1 32/7/1
f 35/7/1 34/7/1 33/7/1
f 35/7/1 32/7/1 31/7/1
f 36/7/1 34/7/1 35/7/1
f 37/7/1 34/7/1 36/7/1
f 38/7/1 2/7/1 34/7/1
f 38/7/1 34/7/1 37/7/1
f 39/7/1 35/7/1 1/7/1
f 39/8/1 36/8/1 35/8/1
f 40/7/1 37/7/1 36/7/1
f 40/8/1 36/8/1 39/8/1
f 41/6/1 38/6/1 37/6/1
f 41/7/1 37/7/1 40/7/1
f 42/7/1 2/7/1 38/7/1
f 42/6/1 38/6/1 41/6/1
f 43/7/1 39/7/1 1/7/1
f 43/7/1 41/7/1 40/7/1
f 43/7/1 42/7/1 41/7/1
f 43/7/1 40/7/1 39/7/1
f 44/7/1 42/7/1 43/7/1
f 45/7/1 42/7/1 44/7/1
f 46/7/1 2/7/1 42/7/1
f 46/7/1 42/7/1 45/7/1
f 47/7/1 43/7/1 1/7/1
f 47/1/1 44/1/1 43/1/1
f 48/7/1 45/7/1 44/7/1
f 48/1/1 44/1/1 47/1/1
f 49/1/1 46/1/1 45/1/1
f 49/7/1 45/7/1 48/7/1
f 50/7/1 2/7/1 46/7/1
f 50/1/1 46/1/1 49/1/1
f 51/7/1 47/7/1 1/7/1
f 51/7/1 49/7/1 48/7/1
f 51/7/1 50/7/1 49/7/1
f 51/7/1 48/7/1 47/7/1
f 52/7/1 50/7/1 51/7/1
f 53/7/1 50/7/1 52/7/1
f 54/7/1 2/7/1 50/7/1
f 54/7/1 50/7/1 53/7/1
f 55/7/1 51/7/1 1/7/1
f 55/6/1 52/6/1 51/6/1
f 56/7/1 53/7/1 52/7/1
f 56/6/1 52/6/1 55/6/1
f 57/8/1 54/8/1 53/8/1
f 57/7/1 53/7/1 56/7/1
f 58/7/1 2/7/1 54/7/1
f 58/8/1 54/8/1 57/8/1
f 59/7/1 55/7/1 1/7/1
f 59/7/1 57/7/1 56/7/1
f 59/7/1 58/7/1 57/7/1
f 59/7/1 56/7/1 55/7/1
f 60/7/1 2/7/1 58/7/1
f 60/7/1 58/7/1 59/7/1
f 61/7/2 62/7/2 63/7/2
f 63/7/2 62/7/2 64/7/2
f 64/7/2 62/7/2 65/7/2
f 65/7/2 62/7/2 66/7/2
f 61/7/2 63/7/2 67/7/2
f 63/3/2 64/3/2 67/3/2
f 64/7/2 65/7/2 68/7/2
f 67/3/2 64/3/2 68/3/2
f 65/3/2 66/3/2 69/3/2
f 68/7/2 65/7/2 69/7/2
f 66/7/2 62/7/2 70/7/2
f 69/3/2 66/3/2 70/3/2
f 68/7/2 69/7/2 71/7/2
f 67/7/2 68/7/2 71/7/2
f 69/7/2 70/7/2 71/7/2
f 61/7/2 67/7/2 71/7/2
f 71/7/2 70/7/2 72/7/2
f 72/7/2 70/7/2 73/7/2
f 70/7/2 62/7/2 74/7/2
f 73/7/2 70/7/2 74/7/2
f 61/7/2 71/7/2 75/7/2
f 71/4/2 72/4/2 75/4/2
f 72/7/2 73/7/2 76/7/2
f 75/4/2 72/4/2 76/4/2
f 73/8/2 74/8/2 77/8/2
f 76/7/2 73/7/2 77/7/2
f 74/7/2 62/7/2 78/7/2
f 77/8/2 74/8/2 78/8/2
f 61/7/2 75/7/2 79/7/2
f 76/7/2 77/7/2 79/7/2
f 77/7/2 78/7/2 79/7/2
f 75/7/2 76/7/2 79/7/2
f 79/7/2 78/7/2 80/7/2
f 80/7/2 78/7/2 81/7/2
f 78/7/2 62/7/2 82/7/2
f 81/7/2 78/7/2 82/7/2
f 61/7/2 79/7/2 83/7/2
f 79/8/2 80/8/2 83/8/2
f 80/7/2 81/7/2 84/7/2
f 83/8/2 80/8/2 84/8/2
f 81/8/2 82/8/2 85/8/2
f 84/7/2 81/7/2 85/7/2
f 82/7/2 62/7/2 86/7/2
f 85/8/2 82/8/2 86/8/2
f 61/7/2 83/7/2 87/7/2
f 84/7/2 85/7/2 87/7/2
f 85/7/2 86/7/2 87/7/2
f 83/7/2 84/7/2 87/7/2
f 87/7/2 86/7/2 88/7/2
f 88/7/2 86/7/2 89/7/2
f 86/7/2 62/7/2 90/7/2
f 89/7/2 86/7/2 90/7/2
f 61/7/2 87/7/2 91/7/2
f 87/5/2 88/5/2 91/5/2
f 88/7/2 89/7/2 92/7/2
f 91/5/2 88/5/2 92/5/2
f 89/3/2 90/3/2 93/3/2
f 92/7/2 89/7/2 93/7/2
f 90/7/2 62/7/2 94/7/2
f 93/3/2 90/3/2 94/3/2
f 61/7/2 91/7/2 95/7/2
f 92/7/2 93/7/2 95/7/2
f 93/7/2 94/7/2 95/7/2
f 91/7/2 92/7/2 95/7/2
f 95/7/2 94/7/2 96/7/2
f 96/7/2 94/7/2 97/7/2
f 94/7/2 62/7/2 98/7/2
f 97/7/2 94/7/2 98/7/2
f 61/7/2 95/7/2 99/7/2
f 95/8/2 96/8/2 99/8/2
f 96/7/2 97/7/2 100/7/2
f 99/8/2 96/8/2 100/8/2
f 97/8/2 98/8/2 101/8/2
f 100/7/2 97/7/2 101/7/2
f 98/7/2 62/7/2 102/7/2
f 101/8/2 98/8/2 102/8/2
f 61/7/2 99/7/2 103/7/2
f 100/7/2 101/7/2 103/7/2
f 101/7/2 102/7/2 103/7/2
f 99/7/2 100/7/2 103/7/2
f 103/7/2 102/7/2 104/7/2
f 104/7/2 102/7/2 105/7/2
f 102/7/2 62/7/2 106/7/2
f 105/7/2 102/7/2 106/7/2
f 61/7/2 103/7/2 107/7/2
f 103/3/2 104/3/2 107/3/2
f 104/7/2 105/7/2 108/7/2
f 107/3/2 104/3/2 108/3/2
f 105/3/2 106/3/2 109/3/2
f 108/7/2 105/7/2 109/7/2
f 106/7/2 62/7/2 110/7/2
f 109/3/2 106/3/2 110/3/2
f 61/7/2 107/7/2 111/7/2
f 108/7/2 109/7/2 111/7/2
f 109/7/2 110/7/2 111/7/2
f 107/7/2 108/7/2 111/7/2
f 111/7/2 110/7/2 112/7/2
f 112/7/2 110/7/2 113/7/2
f 110/7/2 62/7/2 114/7/2
f 113/7/2 110/7/2 114/7/2
f 61/7/2 111/7/2 115/7/2
f 111/4/2 112/4/2 115/4/2
f 112/7/2 113/7/2 116/7/2
f 115/4/2 112/4/2 116/4/2
f 113/4/2 114/4/2 117/4/2
f 116/7/2 113/7/2 117/7/2
f 114/7/2 62/7/2 118/7/2
f 117/4/2 114/4/2 118/4/2
f 61/7/2 115/7/2 119/7/2
f 116/7/2 117/7/2 119/7/2
f 117/7/2 118/7/2 119/7/2
f 115/7/2 116/7/2 119/7/2
f 118/7/2 62/7/2 120/7/2
f 119/7/2 118/7/2 120/7/2
f 123/7/3 122/7/3 121/7/3
f 124/7/3 122/7/3 123/7/3
f 125/7/3 122/7/3 124/7/3
f 126/7/3 122/7/3 125/7/3
f 127/7/3 122/7/3 126/7/3
f 128/7/3 122/7/3 127/7/3
f 129/7/3 122/7/3 128/7/3
f 130/7/3 122/7/3 129/7/3
f 131/7/3 122/7/3 130/7/3
f 132/7/3 122/7/3 131/7/3
f 133/7/3 122/7/3 132/7/3
f 134/7/3 122/7/3 133/7/3
f 135/7/3 122/7/3 134/7/3
f 136/7/3 122/7/3 135/7/3
f 137/7/3 123/7/3 121/7/3
f 137/8/3 124/8/3 123/8/3
f 138/7/3 125/7/3 124/7/3
f 138/8/3 124/8/3 137/8/3
f 139/8/3 126/8/3 125/8/3
f 139/7/3 125/7/3 138/7/3
f 140/7/3 127/7/3 126/7/3
f 140/8/3 126/8/3 139/8/3
f 141/1/3 128/1/3 127/1/3
f 141/7/3 127/7/3 140/7/3
f 142/7/3 129/7/3 128/7/3
f 142/1/3 128/1/3 141/1/3
f 143/8/3 130/8/3 129/8/3
f 143/7/3 129/7/3 142/7/3
f 144/7/3 131/7/3 130/7/3
f 144/8/3 130/8/3 143/8/3
f 145/4/3 132/4/3 131/4/3
f 145/7/3 131/7/3 144/7/3
f 146/7/3 133/7/3 132/7/3
f 146/4/3 132/4/3 145/4/3
f 147/1/3 134/1/3 133/1/3
f 147/7/3 133/7/3 146/7/3
f 148/7/3 135/7/3 134/7/3
f 148/1/3 134/1/3 147/1/3
f 149/1/3 136/1/3 135/1/3
f 149/7/3 135/7/3 148/7/3
f 150/7/3 122/7/3 136/7/3
f 150/1/3 136/1/3 149/1/3
f 151/7/3 149/7/3 148/7/3
f 151/7/3 148/7/3 147/7/3
f 151/7/3 150/7/3 149/7/3
f 151/7/3 147/7/3 146/7/3
f 151/7/3 146/7/3 145/7/3
f 151/7/3 145/7/3 144/7/3
f 151/7/3 144/7/3 143/7/3
f 151/7/3 143/7/3 142/7/3
f 151/7/3 142/7/3 141/7/3
f 151/7/3 141/7/3 140/7/3
f 151/7/3 140/7/3 139/7/3
f 151/7/3 139/7/3 138/7/3
f 151/7/3 138/7/3 137/7/3
f 151/7/3 137/7/3 121/7/3
f 152/7/3 150/7/3 151/7/3
f 153/7/3 150/7/3 152/7/3
f 154/7/3 150/7/3 153/7/3
f 155/7/3 150/7/3 154/7/3
f 156/7/3 150/7/3 155/7/3
f 157/7/3 150/7/3 156/7/3
f 158/7/3 150/7/3 157/7/3
f 159/7/3 150/7/3 158/7/3
f 160/7/3 150/7/3 159/7/3
f 161/7/3 150/7/3 160/7/3
f 162/7/3 150/7/3 161/7/3
f 163/7/3 150/7/3 162/7/3
f 164/7/3 122/7/3 150/7/3
f 164/7/3 150/7/3 163/7/3
f 165/7/3 151/7/3 121/7/3
f 165/8/3 152/8/3 151/8/3
f 166/7/3 153/7/3 152/7/3
f 166/8/3 152/8/3 165/8/3
f 167/1/3 154/1/3 153/1/3
f 167/7/3 153/7/3 166/7/3
f 168/7/3 155/7/3 154/7/3
f 168/1/3 154/1/3 167/1/3
f 169/1/3 156/1/3 155/1/3
f 169/7/3 155/7/3 168/7/3
f 170/7/3 157/7/3 156/7/3
f 170/1/3 156/1/3 169/1/3
f 171/1/3 158/1/3 157/1/3
f 171/7/3 157/7/3 170/7/3
f 172/7/3 159/7/3 158/7/3
f 172/1/3 158/1/3 171/1/3
f 173/4/3 160/4/3 159/4/3
f 173/7/3 159/7/3 172/7/3
f 174/7/3 161/7/3 160/7/3
f 174/4/3 160/4/3 173/4/3
f 175/1/3 162/1/3 161/1/3
f 175/7/3 161/7/3 174/7/3
f 176/7/3 163/7/3 162/7/3
f 176/1/3 162/1/3 175/1/3
f 177/4/3 164/4/3 163/4/3
f 177/7/3 163/7/3 176/7/3
f 178/7/3 122/7/3 164/7/3
f 178/4/3 164/4/3 177/4/3
f 179/7/3 175/7/3 174/7/3
f 179/7/3 177/7/3 176/7/3
f 179/7/3 178/7/3 177/7/3
f 179/7/3 174/7/3 173/7/3
f 179/7/3 173/7/3 172/7/3
f 179/7/3 172/7/3 171/7/3
f 179/7/3 171/7/3 170/7/3
f 179/7/3 170/7/3 169/7/3
f 179/7/3 169/7/3 168/7/3
f 179/7/3 168/7/3 167/7/3
f 179/7/3 167/7/3 166/7/3
f 179/7/3 166/7/3 165/7/3
f 179/7/3 165/7/3 121/7/3
f 179/7/3 176/7/3 175/7/3
f 180/7/3 122/7/3 178/7/3
f 180/7/3 178/7/3 179/7/3
f 181/7/4 182/7/4 183/7/4
f 183/7/4 182/7/4 184/7/4
f 184/7/4 182/7/4 185/7/4
f 185/7/4 182/7/4 186/7/4
f 186/7/4 182/7/4 187/7/4
f 187/7/4 182/7/4 188/7/4
f 188/7/4 182/7/4 189/7/4
f 189/7/4 182/7/4 190/7/4
f 190/7/4 182/7/4 191/7/4
f 191/7/4 182/7/4 192/7/4
f 192/7/4 182/7/4 193/7/4
f 193/7/4 182/7/4 194/7/4
f 194/7/4 182/7/4 195/7/4
f 195/7/4 182/7/4 196/7/4
f 181/7/4 183/7/4 197/7/4
f 183/8/4 184/8/4 197/8/4
f 184/7/4 185/7/4 198/7/4
f 197/8/4 184/8/4 198/8/4
f 185/4/4 186/4/4 199/4/4
f 198/7/4 185/7/4 199/7/4
f 186/7/4 187/7/4 200/7/4
f 199/4/4 186/4/4 200/4/4
f 187/1/4 188/1/4 201/1/4
f 200/7/4 187/7/4 201/7/4
f 188/7/4 189/7/4 202/7/4
f 201/1/4 188/1/4 202/1/4
f 189/8/4 190/8/4 203/8/4
f 202/7/4 189/7/4 203/7/4
f 190/7/4 191/7/4 204/7/4
f 203/8/4 190/8/4 204/8/4
f 191/8/4 192/8/4 205/8/4
f 204/7/4 191/7/4 205/7/4
f 192/7/4 193/7/4 206/7/4
f 205/8/4 192/8/4 206/8/4
f 193/1/4 194/1/4 207/1/4
f 206/7/4 193/7/4 207/7/4
f 194/7/4 195/7/4 208/7/4
f 207/1/4 194/1/4 208/1/4
f 195/1/4 196/1/4 209/1/4
f 208/7/4 195/7/4 209/7/4
f 196/7/4 182/7/4 210/7/4
f 209/1/4 196/1/4 210/1/4
f 208/7/4 209/7/4 211/7/4
f 207/7/4 208/7/4 211/7/4
f 209/7/4 210/7/4 211/7/4
f 206/7/4 207/7/4 211/7/4
f 205/7/4 206/7/4 211/7/4
f 204/7/4 205/7/4 211/7/4
f 203/7/4 204/7/4 211/7/4
f 202/7/4 203/7/4 211/7/4
f 201/7/4 202/7/4 211/7/4
f 200/7/4 201/7/4 211/7/4
f 199/7/4 200/7/4 211/7/4
f 198/7/4 199/7/4 211/7/4
f 197/7/4 198/7/4 211/7/4
f 181/7/4 197/7/4 211/7/4
f 211/7/4 210/7/4 212/7/4
f 212/7/4 210/7/4 213/7/4
f 213/7/4 210/7/4 214/7/4
f 214/7/4 210/7/4 215/7/4
f 215/7/4 210/7/4 216/7/4
f 216/7/4 210/7/4 217/7/4
f 217/7/4 210/7/4 218/7/4
f 218/7/4 210/7/4 219/7/4
f 219/7/4 210/7/4 220/7/4
f 220/7/4 210/7/4 221/7/4
f 221/7/4 210/7/4 222/7/4
f 222/7/4 210/7/4 223/7/4
f 210/7/4 182/7/4 224/7/4
f 223/7/4 210/7/4 224/7/4
f 181/7/4 211/7/4 225/7/4
f 211/8/4 212/8/4 225/8/4
f 212/7/4 213/7/4 226/7/4
f 225/8/4 212/8/4 226/8/4
f 213/1/4 214/1/4 227/1/4
f 226/7/4 213/7/4 227/7/4
f 214/7/4 215/7/4 228/7/4
f 227/1/4 214/1/4 228/1/4
f 215/1/4 216/1/4 229/1/4
f 228/7/4 215/7/4 229/7/4
f 216/7/4 217/7/4 230/7/4
f 229/1/4 216/1/4 230/1/4
f 217/1/4 218/1/4 231/1/4
f 230/7/4 217/7/4 231/7/4
f 218/7/4 219/7/4 232/7/4
f 231/1/4 218/1/4 232/1/4
f 219/5/4 220/5/4 233/5/4
f 232/7/4 219/7/4 233/7/4
f 220/7/4 221/7/4 234/7/4
f 233/5/4 220/5/4 234/5/4
f 221/1/4 222/1/4 235/1/4
f 234/7/4 221/7/4 235/7/4
f 222/7/4 223/7/4 236/7/4
f 235/1/4 222/1/4 236/1/4
f 223/4/4 224/4/4 237/4/4
f 236/7/4 223/7/4 237/7/4
f 224/7/4 182/7/4 238/7/4
f 237/4/4 224/4/4 238/4/4
f 234/7/4 235/7/4 239/7/4
f 236/7/4 237/7/4 239/7/4
f 237/7/4 238/7/4 239/7/4
f 233/7/4 234/7/4 239/7/4
f 232/7/4 233/7/4 239/7/4
f 231/7/4 232/7/4 239/7/4
f 230/7/4 231/7/4 239/7/4
f 229/7/4 230/7/4 239/7/4
f 228/7/4 229/7/4 239/7/4
f 227/7/4 228/7/4 239/7/4
f 226/7/4 227/7/4 239/7/4
f 225/7/4 226/7/4 239/7/4
f 181/7/4 225/7/4 239/7/4
f 235/7/4 236/7/4 239/7/4
f 238/7/4 182/7/4 240/7/4
f 239/7/4 238/7/4 240/7/4
f 243/7/5 242/7/5 241/7/5
f 244/7/5 242/7/5 243/7/5
f 245/7/6 246/7/6 247/7/6
f 247/7/6 246/7/6 248/7/6
