# MagicaVoxel @ ephtracy

# material
mtllib ReColoredBuildingDarker.mtl
usemtl palette

# normals
vn -1 0 0
vn 1 0 0
vn 0 0 1
vn 0 0 -1
vn 0 -1 0
vn 0 1 0

# texcoords
vt 0.0214844 0.5
vt 0.0683594 0.5
vt 0.591797 0.5
vt 0.615234 0.5
vt 0.783203 0.5
vt 0.787109 0.5
vt 0.994141 0.5

# verts
v -7.5 0 8.5
v -7.5 0 -8.5
v -7.5 2 5.5
v -7.5 2 0.5
v -7.5 2 -0.5
v -7.5 2 -5.5
v -7.5 7 5.5
v -7.5 7 0.5
v -7.5 7 -0.5
v -7.5 7 -5.5
v -7.5 8 5.5
v -7.5 8 0.5
v -7.5 8 -0.5
v -7.5 8 -5.5
v -7.5 13 5.5
v -7.5 13 0.5
v -7.5 13 -0.5
v -7.5 13 -5.5
v -7.5 14 5.5
v -7.5 14 0.5
v -7.5 14 -0.5
v -7.5 14 -5.5
v -7.5 19 5.5
v -7.5 19 0.5
v -7.5 19 -0.5
v -7.5 19 -5.5
v -7.5 20 5.5
v -7.5 20 0.5
v -7.5 20 -0.5
v -7.5 20 -5.5
v -7.5 25 5.5
v -7.5 25 0.5
v -7.5 25 -0.5
v -7.5 25 -5.5
v -7.5 26 5.5
v -7.5 26 0.5
v -7.5 26 -0.5
v -7.5 26 -5.5
v -7.5 31 5.5
v -7.5 31 0.5
v -7.5 31 -0.5
v -7.5 31 -5.5
v -7.5 32 5.5
v -7.5 32 0.5
v -7.5 32 -0.5
v -7.5 32 -5.5
v -7.5 37 5.5
v -7.5 37 0.5
v -7.5 37 -0.5
v -7.5 37 -5.5
v -7.5 38 5.5
v -7.5 38 0.5
v -7.5 38 -0.5
v -7.5 38 -5.5
v -7.5 43 5.5
v -7.5 43 0.5
v -7.5 43 -0.5
v -7.5 43 -5.5
v -7.5 45 8.5
v -7.5 45 -8.5
v 10.5 0 8.5
v 10.5 0 -8.5
v 10.5 2 5.5
v 10.5 2 0.5
v 10.5 2 -0.5
v 10.5 2 -5.5
v 10.5 7 5.5
v 10.5 7 0.5
v 10.5 7 -0.5
v 10.5 7 -5.5
v 10.5 8 5.5
v 10.5 8 0.5
v 10.5 8 -0.5
v 10.5 8 -5.5
v 10.5 13 5.5
v 10.5 13 0.5
v 10.5 13 -0.5
v 10.5 13 -5.5
v 10.5 14 5.5
v 10.5 14 0.5
v 10.5 14 -0.5
v 10.5 14 -5.5
v 10.5 19 5.5
v 10.5 19 0.5
v 10.5 19 -0.5
v 10.5 19 -5.5
v 10.5 20 5.5
v 10.5 20 0.5
v 10.5 20 -0.5
v 10.5 20 -5.5
v 10.5 25 5.5
v 10.5 25 0.5
v 10.5 25 -0.5
v 10.5 25 -5.5
v 10.5 26 5.5
v 10.5 26 0.5
v 10.5 26 -0.5
v 10.5 26 -5.5
v 10.5 31 5.5
v 10.5 31 0.5
v 10.5 31 -0.5
v 10.5 31 -5.5
v 10.5 32 5.5
v 10.5 32 0.5
v 10.5 32 -0.5
v 10.5 32 -5.5
v 10.5 37 5.5
v 10.5 37 0.5
v 10.5 37 -0.5
v 10.5 37 -5.5
v 10.5 38 5.5
v 10.5 38 0.5
v 10.5 38 -0.5
v 10.5 38 -5.5
v 10.5 43 5.5
v 10.5 43 0.5
v 10.5 43 -0.5
v 10.5 43 -5.5
v 10.5 45 8.5
v 10.5 45 -8.5
v -7.5 0 8.5
v -7.5 45 8.5
v -4.5 2 8.5
v -4.5 7 8.5
v -4.5 8 8.5
v -4.5 13 8.5
v -4.5 14 8.5
v -4.5 19 8.5
v -4.5 20 8.5
v -4.5 25 8.5
v -4.5 26 8.5
v -4.5 31 8.5
v -4.5 32 8.5
v -4.5 37 8.5
v -4.5 38 8.5
v -4.5 43 8.5
v 0.5 2 8.5
v 0.5 7 8.5
v 0.5 8 8.5
v 0.5 13 8.5
v 0.5 14 8.5
v 0.5 19 8.5
v 0.5 20 8.5
v 0.5 25 8.5
v 0.5 26 8.5
v 0.5 31 8.5
v 0.5 32 8.5
v 0.5 37 8.5
v 0.5 38 8.5
v 0.5 43 8.5
v 2.5 2 8.5
v 2.5 7 8.5
v 2.5 8 8.5
v 2.5 13 8.5
v 2.5 14 8.5
v 2.5 19 8.5
v 2.5 20 8.5
v 2.5 25 8.5
v 2.5 26 8.5
v 2.5 31 8.5
v 2.5 32 8.5
v 2.5 37 8.5
v 2.5 38 8.5
v 2.5 43 8.5
v 7.5 2 8.5
v 7.5 7 8.5
v 7.5 8 8.5
v 7.5 13 8.5
v 7.5 14 8.5
v 7.5 19 8.5
v 7.5 20 8.5
v 7.5 25 8.5
v 7.5 26 8.5
v 7.5 31 8.5
v 7.5 32 8.5
v 7.5 37 8.5
v 7.5 38 8.5
v 7.5 43 8.5
v 10.5 0 8.5
v 10.5 45 8.5
v -7.5 0 -8.5
v -7.5 45 -8.5
v -4.5 2 -8.5
v -4.5 7 -8.5
v -4.5 8 -8.5
v -4.5 13 -8.5
v -4.5 14 -8.5
v -4.5 19 -8.5
v -4.5 20 -8.5
v -4.5 25 -8.5
v -4.5 26 -8.5
v -4.5 31 -8.5
v -4.5 32 -8.5
v -4.5 37 -8.5
v -4.5 38 -8.5
v -4.5 43 -8.5
v 0.5 2 -8.5
v 0.5 7 -8.5
v 0.5 8 -8.5
v 0.5 13 -8.5
v 0.5 14 -8.5
v 0.5 19 -8.5
v 0.5 20 -8.5
v 0.5 25 -8.5
v 0.5 26 -8.5
v 0.5 31 -8.5
v 0.5 32 -8.5
v 0.5 37 -8.5
v 0.5 38 -8.5
v 0.5 43 -8.5
v 2.5 2 -8.5
v 2.5 7 -8.5
v 2.5 8 -8.5
v 2.5 13 -8.5
v 2.5 14 -8.5
v 2.5 19 -8.5
v 2.5 20 -8.5
v 2.5 25 -8.5
v 2.5 26 -8.5
v 2.5 31 -8.5
v 2.5 32 -8.5
v 2.5 37 -8.5
v 2.5 38 -8.5
v 2.5 43 -8.5
v 7.5 2 -8.5
v 7.5 7 -8.5
v 7.5 8 -8.5
v 7.5 13 -8.5
v 7.5 14 -8.5
v 7.5 19 -8.5
v 7.5 20 -8.5
v 7.5 25 -8.5
v 7.5 26 -8.5
v 7.5 31 -8.5
v 7.5 32 -8.5
v 7.5 37 -8.5
v 7.5 38 -8.5
v 7.5 43 -8.5
v 10.5 0 -8.5
v 10.5 45 -8.5
v -7.5 0 8.5
v 10.5 0 8.5
v -7.5 0 -8.5
v 10.5 0 -8.5
v -7.5 45 8.5
v 10.5 45 8.5
v -7.5 45 -8.5
v 10.5 45 -8.5

# faces
f 3/5/1 2/5/1 1/5/1
f 4/5/1 2/5/1 3/5/1
f 5/5/1 2/5/1 4/5/1
f 6/5/1 2/5/1 5/5/1
f 7/5/1 3/5/1 1/5/1
f 7/2/1 4/2/1 3/2/1
f 8/5/1 5/5/1 4/5/1
f 8/2/1 4/2/1 7/2/1
f 9/2/1 6/2/1 5/2/1
f 9/5/1 5/5/1 8/5/1
f 10/5/1 2/5/1 6/5/1
f 10/2/1 6/2/1 9/2/1
f 11/5/1 9/5/1 8/5/1
f 11/5/1 8/5/1 7/5/1
f 11/5/1 10/5/1 9/5/1
f 11/5/1 7/5/1 1/5/1
f 12/5/1 10/5/1 11/5/1
f 13/5/1 10/5/1 12/5/1
f 14/5/1 2/5/1 10/5/1
f 14/5/1 10/5/1 13/5/1
f 15/5/1 11/5/1 1/5/1
f 15/3/1 12/3/1 11/3/1
f 16/5/1 13/5/1 12/5/1
f 16/3/1 12/3/1 15/3/1
f 17/3/1 14/3/1 13/3/1
f 17/5/1 13/5/1 16/5/1
f 18/5/1 2/5/1 14/5/1
f 18/3/1 14/3/1 17/3/1
f 19/5/1 15/5/1 1/5/1
f 19/5/1 17/5/1 16/5/1
f 19/5/1 18/5/1 17/5/1
f 19/5/1 16/5/1 15/5/1
f 20/5/1 18/5/1 19/5/1
f 21/5/1 18/5/1 20/5/1
f 22/5/1 2/5/1 18/5/1
f 22/5/1 18/5/1 21/5/1
f 23/5/1 19/5/1 1/5/1
f 23/6/1 20/6/1 19/6/1
f 24/5/1 21/5/1 20/5/1
f 24/6/1 20/6/1 23/6/1
f 25/6/1 22/6/1 21/6/1
f 25/5/1 21/5/1 24/5/1
f 26/5/1 2/5/1 22/5/1
f 26/6/1 22/6/1 25/6/1
f 27/5/1 23/5/1 1/5/1
f 27/5/1 25/5/1 24/5/1
f 27/5/1 26/5/1 25/5/1
f 27/5/1 24/5/1 23/5/1
f 28/5/1 26/5/1 27/5/1
f 29/5/1 26/5/1 28/5/1
f 30/5/1 2/5/1 26/5/1
f 30/5/1 26/5/1 29/5/1
f 31/5/1 27/5/1 1/5/1
f 31/2/1 28/2/1 27/2/1
f 32/5/1 29/5/1 28/5/1
f 32/2/1 28/2/1 31/2/1
f 33/2/1 30/2/1 29/2/1
f 33/5/1 29/5/1 32/5/1
f 34/5/1 2/5/1 30/5/1
f 34/2/1 30/2/1 33/2/1
f 35/5/1 31/5/1 1/5/1
f 35/5/1 33/5/1 32/5/1
f 35/5/1 34/5/1 33/5/1
f 35/5/1 32/5/1 31/5/1
f 36/5/1 34/5/1 35/5/1
f 37/5/1 34/5/1 36/5/1
f 38/5/1 2/5/1 34/5/1
f 38/5/1 34/5/1 37/5/1
f 39/5/1 35/5/1 1/5/1
f 39/6/1 36/6/1 35/6/1
f 40/5/1 37/5/1 36/5/1
f 40/6/1 36/6/1 39/6/1
f 41/3/1 38/3/1 37/3/1
f 41/5/1 37/5/1 40/5/1
f 42/5/1 2/5/1 38/5/1
f 42/3/1 38/3/1 41/3/1
f 43/5/1 39/5/1 1/5/1
f 43/5/1 41/5/1 40/5/1
f 43/5/1 42/5/1 41/5/1
f 43/5/1 40/5/1 39/5/1
f 44/5/1 42/5/1 43/5/1
f 45/5/1 42/5/1 44/5/1
f 46/5/1 2/5/1 42/5/1
f 46/5/1 42/5/1 45/5/1
f 47/5/1 43/5/1 1/5/1
f 47/2/1 44/2/1 43/2/1
f 48/5/1 45/5/1 44/5/1
f 48/2/1 44/2/1 47/2/1
f 49/2/1 46/2/1 45/2/1
f 49/5/1 45/5/1 48/5/1
f 50/5/1 2/5/1 46/5/1
f 50/2/1 46/2/1 49/2/1
f 51/5/1 47/5/1 1/5/1
f 51/5/1 49/5/1 48/5/1
f 51/5/1 50/5/1 49/5/1
f 51/5/1 48/5/1 47/5/1
f 52/5/1 50/5/1 51/5/1
f 53/5/1 50/5/1 52/5/1
f 54/5/1 2/5/1 50/5/1
f 54/5/1 50/5/1 53/5/1
f 55/5/1 51/5/1 1/5/1
f 55/3/1 52/3/1 51/3/1
f 56/5/1 53/5/1 52/5/1
f 56/3/1 52/3/1 55/3/1
f 57/6/1 54/6/1 53/6/1
f 57/5/1 53/5/1 56/5/1
f 58/5/1 2/5/1 54/5/1
f 58/6/1 54/6/1 57/6/1
f 59/5/1 55/5/1 1/5/1
f 59/5/1 57/5/1 56/5/1
f 59/5/1 58/5/1 57/5/1
f 59/5/1 56/5/1 55/5/1
f 60/5/1 2/5/1 58/5/1
f 60/5/1 58/5/1 59/5/1
f 61/5/2 62/5/2 63/5/2
f 63/5/2 62/5/2 64/5/2
f 64/5/2 62/5/2 65/5/2
f 65/5/2 62/5/2 66/5/2
f 61/5/2 63/5/2 67/5/2
f 63/2/2 64/2/2 67/2/2
f 64/5/2 65/5/2 68/5/2
f 67/2/2 64/2/2 68/2/2
f 65/2/2 66/2/2 69/2/2
f 68/5/2 65/5/2 69/5/2
f 66/5/2 62/5/2 70/5/2
f 69/2/2 66/2/2 70/2/2
f 68/5/2 69/5/2 71/5/2
f 67/5/2 68/5/2 71/5/2
f 69/5/2 70/5/2 71/5/2
f 61/5/2 67/5/2 71/5/2
f 71/5/2 70/5/2 72/5/2
f 72/5/2 70/5/2 73/5/2
f 70/5/2 62/5/2 74/5/2
f 73/5/2 70/5/2 74/5/2
f 61/5/2 71/5/2 75/5/2
f 71/3/2 72/3/2 75/3/2
f 72/5/2 73/5/2 76/5/2
f 75/3/2 72/3/2 76/3/2
f 73/6/2 74/6/2 77/6/2
f 76/5/2 73/5/2 77/5/2
f 74/5/2 62/5/2 78/5/2
f 77/6/2 74/6/2 78/6/2
f 61/5/2 75/5/2 79/5/2
f 76/5/2 77/5/2 79/5/2
f 77/5/2 78/5/2 79/5/2
f 75/5/2 76/5/2 79/5/2
f 79/5/2 78/5/2 80/5/2
f 80/5/2 78/5/2 81/5/2
f 78/5/2 62/5/2 82/5/2
f 81/5/2 78/5/2 82/5/2
f 61/5/2 79/5/2 83/5/2
f 79/6/2 80/6/2 83/6/2
f 80/5/2 81/5/2 84/5/2
f 83/6/2 80/6/2 84/6/2
f 81/6/2 82/6/2 85/6/2
f 84/5/2 81/5/2 85/5/2
f 82/5/2 62/5/2 86/5/2
f 85/6/2 82/6/2 86/6/2
f 61/5/2 83/5/2 87/5/2
f 84/5/2 85/5/2 87/5/2
f 85/5/2 86/5/2 87/5/2
f 83/5/2 84/5/2 87/5/2
f 87/5/2 86/5/2 88/5/2
f 88/5/2 86/5/2 89/5/2
f 86/5/2 62/5/2 90/5/2
f 89/5/2 86/5/2 90/5/2
f 61/5/2 87/5/2 91/5/2
f 87/2/2 88/2/2 91/2/2
f 88/5/2 89/5/2 92/5/2
f 91/2/2 88/2/2 92/2/2
f 89/2/2 90/2/2 93/2/2
f 92/5/2 89/5/2 93/5/2
f 90/5/2 62/5/2 94/5/2
f 93/2/2 90/2/2 94/2/2
f 61/5/2 91/5/2 95/5/2
f 92/5/2 93/5/2 95/5/2
f 93/5/2 94/5/2 95/5/2
f 91/5/2 92/5/2 95/5/2
f 95/5/2 94/5/2 96/5/2
f 96/5/2 94/5/2 97/5/2
f 94/5/2 62/5/2 98/5/2
f 97/5/2 94/5/2 98/5/2
f 61/5/2 95/5/2 99/5/2
f 95/6/2 96/6/2 99/6/2
f 96/5/2 97/5/2 100/5/2
f 99/6/2 96/6/2 100/6/2
f 97/6/2 98/6/2 101/6/2
f 100/5/2 97/5/2 101/5/2
f 98/5/2 62/5/2 102/5/2
f 101/6/2 98/6/2 102/6/2
f 61/5/2 99/5/2 103/5/2
f 100/5/2 101/5/2 103/5/2
f 101/5/2 102/5/2 103/5/2
f 99/5/2 100/5/2 103/5/2
f 103/5/2 102/5/2 104/5/2
f 104/5/2 102/5/2 105/5/2
f 102/5/2 62/5/2 106/5/2
f 105/5/2 102/5/2 106/5/2
f 61/5/2 103/5/2 107/5/2
f 103/2/2 104/2/2 107/2/2
f 104/5/2 105/5/2 108/5/2
f 107/2/2 104/2/2 108/2/2
f 105/2/2 106/2/2 109/2/2
f 108/5/2 105/5/2 109/5/2
f 106/5/2 62/5/2 110/5/2
f 109/2/2 106/2/2 110/2/2
f 61/5/2 107/5/2 111/5/2
f 108/5/2 109/5/2 111/5/2
f 109/5/2 110/5/2 111/5/2
f 107/5/2 108/5/2 111/5/2
f 111/5/2 110/5/2 112/5/2
f 112/5/2 110/5/2 113/5/2
f 110/5/2 62/5/2 114/5/2
f 113/5/2 110/5/2 114/5/2
f 61/5/2 111/5/2 115/5/2
f 111/4/2 112/4/2 115/4/2
f 112/5/2 113/5/2 116/5/2
f 115/4/2 112/4/2 116/4/2
f 113/4/2 114/4/2 117/4/2
f 116/5/2 113/5/2 117/5/2
f 114/5/2 62/5/2 118/5/2
f 117/4/2 114/4/2 118/4/2
f 61/5/2 115/5/2 119/5/2
f 116/5/2 117/5/2 119/5/2
f 117/5/2 118/5/2 119/5/2
f 115/5/2 116/5/2 119/5/2
f 118/5/2 62/5/2 120/5/2
f 119/5/2 118/5/2 120/5/2
f 123/5/3 122/5/3 121/5/3
f 124/5/3 122/5/3 123/5/3
f 125/5/3 122/5/3 124/5/3
f 126/5/3 122/5/3 125/5/3
f 127/5/3 122/5/3 126/5/3
f 128/5/3 122/5/3 127/5/3
f 129/5/3 122/5/3 128/5/3
f 130/5/3 122/5/3 129/5/3
f 131/5/3 122/5/3 130/5/3
f 132/5/3 122/5/3 131/5/3
f 133/5/3 122/5/3 132/5/3
f 134/5/3 122/5/3 133/5/3
f 135/5/3 122/5/3 134/5/3
f 136/5/3 122/5/3 135/5/3
f 137/5/3 123/5/3 121/5/3
f 137/6/3 124/6/3 123/6/3
f 138/5/3 125/5/3 124/5/3
f 138/6/3 124/6/3 137/6/3
f 139/6/3 126/6/3 125/6/3
f 139/5/3 125/5/3 138/5/3
f 140/5/3 127/5/3 126/5/3
f 140/6/3 126/6/3 139/6/3
f 141/2/3 128/2/3 127/2/3
f 141/5/3 127/5/3 140/5/3
f 142/5/3 129/5/3 128/5/3
f 142/2/3 128/2/3 141/2/3
f 143/6/3 130/6/3 129/6/3
f 143/5/3 129/5/3 142/5/3
f 144/5/3 131/5/3 130/5/3
f 144/6/3 130/6/3 143/6/3
f 145/3/3 132/3/3 131/3/3
f 145/5/3 131/5/3 144/5/3
f 146/5/3 133/5/3 132/5/3
f 146/3/3 132/3/3 145/3/3
f 147/2/3 134/2/3 133/2/3
f 147/5/3 133/5/3 146/5/3
f 148/5/3 135/5/3 134/5/3
f 148/2/3 134/2/3 147/2/3
f 149/2/3 136/2/3 135/2/3
f 149/5/3 135/5/3 148/5/3
f 150/5/3 122/5/3 136/5/3
f 150/2/3 136/2/3 149/2/3
f 151/5/3 149/5/3 148/5/3
f 151/5/3 148/5/3 147/5/3
f 151/5/3 150/5/3 149/5/3
f 151/5/3 147/5/3 146/5/3
f 151/5/3 146/5/3 145/5/3
f 151/5/3 145/5/3 144/5/3
f 151/5/3 144/5/3 143/5/3
f 151/5/3 143/5/3 142/5/3
f 151/5/3 142/5/3 141/5/3
f 151/5/3 141/5/3 140/5/3
f 151/5/3 140/5/3 139/5/3
f 151/5/3 139/5/3 138/5/3
f 151/5/3 138/5/3 137/5/3
f 151/5/3 137/5/3 121/5/3
f 152/5/3 150/5/3 151/5/3
f 153/5/3 150/5/3 152/5/3
f 154/5/3 150/5/3 153/5/3
f 155/5/3 150/5/3 154/5/3
f 156/5/3 150/5/3 155/5/3
f 157/5/3 150/5/3 156/5/3
f 158/5/3 150/5/3 157/5/3
f 159/5/3 150/5/3 158/5/3
f 160/5/3 150/5/3 159/5/3
f 161/5/3 150/5/3 160/5/3
f 162/5/3 150/5/3 161/5/3
f 163/5/3 150/5/3 162/5/3
f 164/5/3 122/5/3 150/5/3
f 164/5/3 150/5/3 163/5/3
f 165/5/3 151/5/3 121/5/3
f 165/6/3 152/6/3 151/6/3
f 166/5/3 153/5/3 152/5/3
f 166/6/3 152/6/3 165/6/3
f 167/2/3 154/2/3 153/2/3
f 167/5/3 153/5/3 166/5/3
f 168/5/3 155/5/3 154/5/3
f 168/2/3 154/2/3 167/2/3
f 169/2/3 156/2/3 155/2/3
f 169/5/3 155/5/3 168/5/3
f 170/5/3 157/5/3 156/5/3
f 170/2/3 156/2/3 169/2/3
f 171/2/3 158/2/3 157/2/3
f 171/5/3 157/5/3 170/5/3
f 172/5/3 159/5/3 158/5/3
f 172/2/3 158/2/3 171/2/3
f 173/3/3 160/3/3 159/3/3
f 173/5/3 159/5/3 172/5/3
f 174/5/3 161/5/3 160/5/3
f 174/3/3 160/3/3 173/3/3
f 175/2/3 162/2/3 161/2/3
f 175/5/3 161/5/3 174/5/3
f 176/5/3 163/5/3 162/5/3
f 176/2/3 162/2/3 175/2/3
f 177/3/3 164/3/3 163/3/3
f 177/5/3 163/5/3 176/5/3
f 178/5/3 122/5/3 164/5/3
f 178/3/3 164/3/3 177/3/3
f 179/5/3 175/5/3 174/5/3
f 179/5/3 177/5/3 176/5/3
f 179/5/3 178/5/3 177/5/3
f 179/5/3 174/5/3 173/5/3
f 179/5/3 173/5/3 172/5/3
f 179/5/3 172/5/3 171/5/3
f 179/5/3 171/5/3 170/5/3
f 179/5/3 170/5/3 169/5/3
f 179/5/3 169/5/3 168/5/3
f 179/5/3 168/5/3 167/5/3
f 179/5/3 167/5/3 166/5/3
f 179/5/3 166/5/3 165/5/3
f 179/5/3 165/5/3 121/5/3
f 179/5/3 176/5/3 175/5/3
f 180/5/3 122/5/3 178/5/3
f 180/5/3 178/5/3 179/5/3
f 181/5/4 182/5/4 183/5/4
f 183/5/4 182/5/4 184/5/4
f 184/5/4 182/5/4 185/5/4
f 185/5/4 182/5/4 186/5/4
f 186/5/4 182/5/4 187/5/4
f 187/5/4 182/5/4 188/5/4
f 188/5/4 182/5/4 189/5/4
f 189/5/4 182/5/4 190/5/4
f 190/5/4 182/5/4 191/5/4
f 191/5/4 182/5/4 192/5/4
f 192/5/4 182/5/4 193/5/4
f 193/5/4 182/5/4 194/5/4
f 194/5/4 182/5/4 195/5/4
f 195/5/4 182/5/4 196/5/4
f 181/5/4 183/5/4 197/5/4
f 183/6/4 184/6/4 197/6/4
f 184/5/4 185/5/4 198/5/4
f 197/6/4 184/6/4 198/6/4
f 185/3/4 186/3/4 199/3/4
f 198/5/4 185/5/4 199/5/4
f 186/5/4 187/5/4 200/5/4
f 199/3/4 186/3/4 200/3/4
f 187/2/4 188/2/4 201/2/4
f 200/5/4 187/5/4 201/5/4
f 188/5/4 189/5/4 202/5/4
f 201/2/4 188/2/4 202/2/4
f 189/6/4 190/6/4 203/6/4
f 202/5/4 189/5/4 203/5/4
f 190/5/4 191/5/4 204/5/4
f 203/6/4 190/6/4 204/6/4
f 191/6/4 192/6/4 205/6/4
f 204/5/4 191/5/4 205/5/4
f 192/5/4 193/5/4 206/5/4
f 205/6/4 192/6/4 206/6/4
f 193/2/4 194/2/4 207/2/4
f 206/5/4 193/5/4 207/5/4
f 194/5/4 195/5/4 208/5/4
f 207/2/4 194/2/4 208/2/4
f 195/2/4 196/2/4 209/2/4
f 208/5/4 195/5/4 209/5/4
f 196/5/4 182/5/4 210/5/4
f 209/2/4 196/2/4 210/2/4
f 208/5/4 209/5/4 211/5/4
f 207/5/4 208/5/4 211/5/4
f 209/5/4 210/5/4 211/5/4
f 206/5/4 207/5/4 211/5/4
f 205/5/4 206/5/4 211/5/4
f 204/5/4 205/5/4 211/5/4
f 203/5/4 204/5/4 211/5/4
f 202/5/4 203/5/4 211/5/4
f 201/5/4 202/5/4 211/5/4
f 200/5/4 201/5/4 211/5/4
f 199/5/4 200/5/4 211/5/4
f 198/5/4 199/5/4 211/5/4
f 197/5/4 198/5/4 211/5/4
f 181/5/4 197/5/4 211/5/4
f 211/5/4 210/5/4 212/5/4
f 212/5/4 210/5/4 213/5/4
f 213/5/4 210/5/4 214/5/4
f 214/5/4 210/5/4 215/5/4
f 215/5/4 210/5/4 216/5/4
f 216/5/4 210/5/4 217/5/4
f 217/5/4 210/5/4 218/5/4
f 218/5/4 210/5/4 219/5/4
f 219/5/4 210/5/4 220/5/4
f 220/5/4 210/5/4 221/5/4
f 221/5/4 210/5/4 222/5/4
f 222/5/4 210/5/4 223/5/4
f 210/5/4 182/5/4 224/5/4
f 223/5/4 210/5/4 224/5/4
f 181/5/4 211/5/4 225/5/4
f 211/6/4 212/6/4 225/6/4
f 212/5/4 213/5/4 226/5/4
f 225/6/4 212/6/4 226/6/4
f 213/2/4 214/2/4 227/2/4
f 226/5/4 213/5/4 227/5/4
f 214/5/4 215/5/4 228/5/4
f 227/2/4 214/2/4 228/2/4
f 215/2/4 216/2/4 229/2/4
f 228/5/4 215/5/4 229/5/4
f 216/5/4 217/5/4 230/5/4
f 229/2/4 216/2/4 230/2/4
f 217/2/4 218/2/4 231/2/4
f 230/5/4 217/5/4 231/5/4
f 218/5/4 219/5/4 232/5/4
f 231/2/4 218/2/4 232/2/4
f 219/6/4 220/6/4 233/6/4
f 232/5/4 219/5/4 233/5/4
f 220/5/4 221/5/4 234/5/4
f 233/6/4 220/6/4 234/6/4
f 221/2/4 222/2/4 235/2/4
f 234/5/4 221/5/4 235/5/4
f 222/5/4 223/5/4 236/5/4
f 235/2/4 222/2/4 236/2/4
f 223/3/4 224/3/4 237/3/4
f 236/5/4 223/5/4 237/5/4
f 224/5/4 182/5/4 238/5/4
f 237/3/4 224/3/4 238/3/4
f 234/5/4 235/5/4 239/5/4
f 236/5/4 237/5/4 239/5/4
f 237/5/4 238/5/4 239/5/4
f 233/5/4 234/5/4 239/5/4
f 232/5/4 233/5/4 239/5/4
f 231/5/4 232/5/4 239/5/4
f 230/5/4 231/5/4 239/5/4
f 229/5/4 230/5/4 239/5/4
f 228/5/4 229/5/4 239/5/4
f 227/5/4 228/5/4 239/5/4
f 226/5/4 227/5/4 239/5/4
f 225/5/4 226/5/4 239/5/4
f 181/5/4 225/5/4 239/5/4
f 235/5/4 236/5/4 239/5/4
f 238/5/4 182/5/4 240/5/4
f 239/5/4 238/5/4 240/5/4
f 243/5/5 242/5/5 241/5/5
f 244/5/5 242/5/5 243/5/5
f 245/5/6 246/5/6 247/5/6
f 247/5/6 246/5/6 248/5/6
