# MagicaVoxel @ ephtracy

# material
mtllib ReColoredBuilding2.mtl
usemtl palette

# normals
vn -1 0 0
vn 1 0 0
vn 0 0 1
vn 0 0 -1
vn 0 -1 0
vn 0 1 0

# texcoords
vt 0.0214844 0.5
vt 0.0683594 0.5
vt 0.591797 0.5
vt 0.615234 0.5
vt 0.728516 0.5
vt 0.783203 0.5
vt 0.787109 0.5
vt 0.994141 0.5

# verts
v -7.5 0 8.5
v -7.5 0 -8.5
v -7.5 2 5.5
v -7.5 2 0.5
v -7.5 2 -0.5
v -7.5 2 -5.5
v -7.5 7 5.5
v -7.5 7 0.5
v -7.5 7 -0.5
v -7.5 7 -5.5
v -7.5 8 5.5
v -7.5 8 0.5
v -7.5 8 -0.5
v -7.5 8 -5.5
v -7.5 13 5.5
v -7.5 13 0.5
v -7.5 13 -0.5
v -7.5 13 -5.5
v -7.5 14 5.5
v -7.5 14 0.5
v -7.5 14 -0.5
v -7.5 14 -5.5
v -7.5 19 5.5
v -7.5 19 0.5
v -7.5 19 -0.5
v -7.5 19 -5.5
v -7.5 20 5.5
v -7.5 20 0.5
v -7.5 20 -0.5
v -7.5 20 -5.5
v -7.5 25 5.5
v -7.5 25 0.5
v -7.5 25 -0.5
v -7.5 25 -5.5
v -7.5 26 5.5
v -7.5 26 0.5
v -7.5 26 -0.5
v -7.5 26 -5.5
v -7.5 31 5.5
v -7.5 31 0.5
v -7.5 31 -0.5
v -7.5 31 -5.5
v -7.5 32 5.5
v -7.5 32 0.5
v -7.5 32 -0.5
v -7.5 32 -5.5
v -7.5 37 5.5
v -7.5 37 0.5
v -7.5 37 -0.5
v -7.5 37 -5.5
v -7.5 38 5.5
v -7.5 38 0.5
v -7.5 38 -0.5
v -7.5 38 -5.5
v -7.5 43 5.5
v -7.5 43 0.5
v -7.5 43 -0.5
v -7.5 43 -5.5
v -7.5 45 8.5
v -7.5 45 -8.5
v 10.5 0 8.5
v 10.5 0 -8.5
v 10.5 2 5.5
v 10.5 2 0.5
v 10.5 2 -0.5
v 10.5 2 -5.5
v 10.5 7 5.5
v 10.5 7 0.5
v 10.5 7 -0.5
v 10.5 7 -5.5
v 10.5 8 5.5
v 10.5 8 0.5
v 10.5 8 -0.5
v 10.5 8 -5.5
v 10.5 13 5.5
v 10.5 13 0.5
v 10.5 13 -0.5
v 10.5 13 -5.5
v 10.5 14 5.5
v 10.5 14 0.5
v 10.5 14 -0.5
v 10.5 14 -5.5
v 10.5 19 5.5
v 10.5 19 0.5
v 10.5 19 -0.5
v 10.5 19 -5.5
v 10.5 20 5.5
v 10.5 20 0.5
v 10.5 20 -0.5
v 10.5 20 -5.5
v 10.5 25 5.5
v 10.5 25 0.5
v 10.5 25 -0.5
v 10.5 25 -5.5
v 10.5 26 5.5
v 10.5 26 0.5
v 10.5 26 -0.5
v 10.5 26 -5.5
v 10.5 31 5.5
v 10.5 31 0.5
v 10.5 31 -0.5
v 10.5 31 -5.5
v 10.5 32 5.5
v 10.5 32 0.5
v 10.5 32 -0.5
v 10.5 32 -5.5
v 10.5 37 5.5
v 10.5 37 0.5
v 10.5 37 -0.5
v 10.5 37 -5.5
v 10.5 38 5.5
v 10.5 38 0.5
v 10.5 38 -0.5
v 10.5 38 -5.5
v 10.5 43 5.5
v 10.5 43 0.5
v 10.5 43 -0.5
v 10.5 43 -5.5
v 10.5 45 8.5
v 10.5 45 -8.5
v -7.5 0 8.5
v -7.5 45 8.5
v -4.5 2 8.5
v -4.5 7 8.5
v -4.5 8 8.5
v -4.5 13 8.5
v -4.5 14 8.5
v -4.5 19 8.5
v -4.5 20 8.5
v -4.5 25 8.5
v -4.5 26 8.5
v -4.5 31 8.5
v -4.5 32 8.5
v -4.5 37 8.5
v -4.5 38 8.5
v -4.5 43 8.5
v 0.5 2 8.5
v 0.5 7 8.5
v 0.5 8 8.5
v 0.5 13 8.5
v 0.5 14 8.5
v 0.5 19 8.5
v 0.5 20 8.5
v 0.5 25 8.5
v 0.5 26 8.5
v 0.5 31 8.5
v 0.5 32 8.5
v 0.5 37 8.5
v 0.5 38 8.5
v 0.5 43 8.5
v 2.5 2 8.5
v 2.5 7 8.5
v 2.5 8 8.5
v 2.5 13 8.5
v 2.5 14 8.5
v 2.5 19 8.5
v 2.5 20 8.5
v 2.5 25 8.5
v 2.5 26 8.5
v 2.5 31 8.5
v 2.5 32 8.5
v 2.5 37 8.5
v 2.5 38 8.5
v 2.5 43 8.5
v 7.5 2 8.5
v 7.5 7 8.5
v 7.5 8 8.5
v 7.5 13 8.5
v 7.5 14 8.5
v 7.5 19 8.5
v 7.5 20 8.5
v 7.5 25 8.5
v 7.5 26 8.5
v 7.5 31 8.5
v 7.5 32 8.5
v 7.5 37 8.5
v 7.5 38 8.5
v 7.5 43 8.5
v 10.5 0 8.5
v 10.5 45 8.5
v -7.5 0 -8.5
v -7.5 45 -8.5
v -4.5 2 -8.5
v -4.5 7 -8.5
v -4.5 8 -8.5
v -4.5 13 -8.5
v -4.5 14 -8.5
v -4.5 19 -8.5
v -4.5 20 -8.5
v -4.5 25 -8.5
v -4.5 26 -8.5
v -4.5 31 -8.5
v -4.5 32 -8.5
v -4.5 37 -8.5
v -4.5 38 -8.5
v -4.5 43 -8.5
v 0.5 2 -8.5
v 0.5 7 -8.5
v 0.5 8 -8.5
v 0.5 13 -8.5
v 0.5 14 -8.5
v 0.5 19 -8.5
v 0.5 20 -8.5
v 0.5 25 -8.5
v 0.5 26 -8.5
v 0.5 31 -8.5
v 0.5 32 -8.5
v 0.5 37 -8.5
v 0.5 38 -8.5
v 0.5 43 -8.5
v 2.5 2 -8.5
v 2.5 7 -8.5
v 2.5 8 -8.5
v 2.5 13 -8.5
v 2.5 14 -8.5
v 2.5 19 -8.5
v 2.5 20 -8.5
v 2.5 25 -8.5
v 2.5 26 -8.5
v 2.5 31 -8.5
v 2.5 32 -8.5
v 2.5 37 -8.5
v 2.5 38 -8.5
v 2.5 43 -8.5
v 7.5 2 -8.5
v 7.5 7 -8.5
v 7.5 8 -8.5
v 7.5 13 -8.5
v 7.5 14 -8.5
v 7.5 19 -8.5
v 7.5 20 -8.5
v 7.5 25 -8.5
v 7.5 26 -8.5
v 7.5 31 -8.5
v 7.5 32 -8.5
v 7.5 37 -8.5
v 7.5 38 -8.5
v 7.5 43 -8.5
v 10.5 0 -8.5
v 10.5 45 -8.5
v -7.5 0 8.5
v 10.5 0 8.5
v -7.5 0 -8.5
v 10.5 0 -8.5
v -7.5 45 8.5
v 10.5 45 8.5
v -7.5 45 -8.5
v 10.5 45 -8.5

# faces
f 3/6/1 2/6/1 1/6/1
f 4/6/1 2/6/1 3/6/1
f 5/6/1 2/6/1 4/6/1
f 6/6/1 2/6/1 5/6/1
f 7/6/1 3/6/1 1/6/1
f 7/5/1 4/5/1 3/5/1
f 8/6/1 5/6/1 4/6/1
f 8/5/1 4/5/1 7/5/1
f 9/2/1 6/2/1 5/2/1
f 9/6/1 5/6/1 8/6/1
f 10/6/1 2/6/1 6/6/1
f 10/2/1 6/2/1 9/2/1
f 11/6/1 9/6/1 8/6/1
f 11/6/1 8/6/1 7/6/1
f 11/6/1 10/6/1 9/6/1
f 11/6/1 7/6/1 1/6/1
f 12/6/1 10/6/1 11/6/1
f 13/6/1 10/6/1 12/6/1
f 14/6/1 2/6/1 10/6/1
f 14/6/1 10/6/1 13/6/1
f 15/6/1 11/6/1 1/6/1
f 15/5/1 12/5/1 11/5/1
f 16/6/1 13/6/1 12/6/1
f 16/5/1 12/5/1 15/5/1
f 17/3/1 14/3/1 13/3/1
f 17/6/1 13/6/1 16/6/1
f 18/6/1 2/6/1 14/6/1
f 18/3/1 14/3/1 17/3/1
f 19/6/1 15/6/1 1/6/1
f 19/6/1 17/6/1 16/6/1
f 19/6/1 18/6/1 17/6/1
f 19/6/1 16/6/1 15/6/1
f 20/6/1 18/6/1 19/6/1
f 21/6/1 18/6/1 20/6/1
f 22/6/1 2/6/1 18/6/1
f 22/6/1 18/6/1 21/6/1
f 23/6/1 19/6/1 1/6/1
f 23/7/1 20/7/1 19/7/1
f 24/6/1 21/6/1 20/6/1
f 24/7/1 20/7/1 23/7/1
f 25/7/1 22/7/1 21/7/1
f 25/6/1 21/6/1 24/6/1
f 26/6/1 2/6/1 22/6/1
f 26/7/1 22/7/1 25/7/1
f 27/6/1 23/6/1 1/6/1
f 27/6/1 25/6/1 24/6/1
f 27/6/1 26/6/1 25/6/1
f 27/6/1 24/6/1 23/6/1
f 28/6/1 26/6/1 27/6/1
f 29/6/1 26/6/1 28/6/1
f 30/6/1 2/6/1 26/6/1
f 30/6/1 26/6/1 29/6/1
f 31/6/1 27/6/1 1/6/1
f 31/5/1 28/5/1 27/5/1
f 32/6/1 29/6/1 28/6/1
f 32/5/1 28/5/1 31/5/1
f 33/5/1 30/5/1 29/5/1
f 33/6/1 29/6/1 32/6/1
f 34/6/1 2/6/1 30/6/1
f 34/5/1 30/5/1 33/5/1
f 35/6/1 31/6/1 1/6/1
f 35/6/1 33/6/1 32/6/1
f 35/6/1 34/6/1 33/6/1
f 35/6/1 32/6/1 31/6/1
f 36/6/1 34/6/1 35/6/1
f 37/6/1 34/6/1 36/6/1
f 38/6/1 2/6/1 34/6/1
f 38/6/1 34/6/1 37/6/1
f 39/6/1 35/6/1 1/6/1
f 39/7/1 36/7/1 35/7/1
f 40/6/1 37/6/1 36/6/1
f 40/7/1 36/7/1 39/7/1
f 41/3/1 38/3/1 37/3/1
f 41/6/1 37/6/1 40/6/1
f 42/6/1 2/6/1 38/6/1
f 42/3/1 38/3/1 41/3/1
f 43/6/1 39/6/1 1/6/1
f 43/6/1 41/6/1 40/6/1
f 43/6/1 42/6/1 41/6/1
f 43/6/1 40/6/1 39/6/1
f 44/6/1 42/6/1 43/6/1
f 45/6/1 42/6/1 44/6/1
f 46/6/1 2/6/1 42/6/1
f 46/6/1 42/6/1 45/6/1
f 47/6/1 43/6/1 1/6/1
f 47/5/1 44/5/1 43/5/1
f 48/6/1 45/6/1 44/6/1
f 48/5/1 44/5/1 47/5/1
f 49/2/1 46/2/1 45/2/1
f 49/6/1 45/6/1 48/6/1
f 50/6/1 2/6/1 46/6/1
f 50/2/1 46/2/1 49/2/1
f 51/6/1 47/6/1 1/6/1
f 51/6/1 49/6/1 48/6/1
f 51/6/1 50/6/1 49/6/1
f 51/6/1 48/6/1 47/6/1
f 52/6/1 50/6/1 51/6/1
f 53/6/1 50/6/1 52/6/1
f 54/6/1 2/6/1 50/6/1
f 54/6/1 50/6/1 53/6/1
f 55/6/1 51/6/1 1/6/1
f 55/3/1 52/3/1 51/3/1
f 56/6/1 53/6/1 52/6/1
f 56/3/1 52/3/1 55/3/1
f 57/7/1 54/7/1 53/7/1
f 57/6/1 53/6/1 56/6/1
f 58/6/1 2/6/1 54/6/1
f 58/7/1 54/7/1 57/7/1
f 59/6/1 55/6/1 1/6/1
f 59/6/1 57/6/1 56/6/1
f 59/6/1 58/6/1 57/6/1
f 59/6/1 56/6/1 55/6/1
f 60/6/1 2/6/1 58/6/1
f 60/6/1 58/6/1 59/6/1
f 61/6/2 62/6/2 63/6/2
f 63/6/2 62/6/2 64/6/2
f 64/6/2 62/6/2 65/6/2
f 65/6/2 62/6/2 66/6/2
f 61/6/2 63/6/2 67/6/2
f 63/2/2 64/2/2 67/2/2
f 64/6/2 65/6/2 68/6/2
f 67/2/2 64/2/2 68/2/2
f 65/7/2 66/7/2 69/7/2
f 68/6/2 65/6/2 69/6/2
f 66/6/2 62/6/2 70/6/2
f 69/7/2 66/7/2 70/7/2
f 68/6/2 69/6/2 71/6/2
f 67/6/2 68/6/2 71/6/2
f 69/6/2 70/6/2 71/6/2
f 61/6/2 67/6/2 71/6/2
f 71/6/2 70/6/2 72/6/2
f 72/6/2 70/6/2 73/6/2
f 70/6/2 62/6/2 74/6/2
f 73/6/2 70/6/2 74/6/2
f 61/6/2 71/6/2 75/6/2
f 71/5/2 72/5/2 75/5/2
f 72/6/2 73/6/2 76/6/2
f 75/5/2 72/5/2 76/5/2
f 73/7/2 74/7/2 77/7/2
f 76/6/2 73/6/2 77/6/2
f 74/6/2 62/6/2 78/6/2
f 77/7/2 74/7/2 78/7/2
f 61/6/2 75/6/2 79/6/2
f 76/6/2 77/6/2 79/6/2
f 77/6/2 78/6/2 79/6/2
f 75/6/2 76/6/2 79/6/2
f 79/6/2 78/6/2 80/6/2
f 80/6/2 78/6/2 81/6/2
f 78/6/2 62/6/2 82/6/2
f 81/6/2 78/6/2 82/6/2
f 61/6/2 79/6/2 83/6/2
f 79/7/2 80/7/2 83/7/2
f 80/6/2 81/6/2 84/6/2
f 83/7/2 80/7/2 84/7/2
f 81/7/2 82/7/2 85/7/2
f 84/6/2 81/6/2 85/6/2
f 82/6/2 62/6/2 86/6/2
f 85/7/2 82/7/2 86/7/2
f 61/6/2 83/6/2 87/6/2
f 84/6/2 85/6/2 87/6/2
f 85/6/2 86/6/2 87/6/2
f 83/6/2 84/6/2 87/6/2
f 87/6/2 86/6/2 88/6/2
f 88/6/2 86/6/2 89/6/2
f 86/6/2 62/6/2 90/6/2
f 89/6/2 86/6/2 90/6/2
f 61/6/2 87/6/2 91/6/2
f 87/7/2 88/7/2 91/7/2
f 88/6/2 89/6/2 92/6/2
f 91/7/2 88/7/2 92/7/2
f 89/7/2 90/7/2 93/7/2
f 92/6/2 89/6/2 93/6/2
f 90/6/2 62/6/2 94/6/2
f 93/7/2 90/7/2 94/7/2
f 61/6/2 91/6/2 95/6/2
f 92/6/2 93/6/2 95/6/2
f 93/6/2 94/6/2 95/6/2
f 91/6/2 92/6/2 95/6/2
f 95/6/2 94/6/2 96/6/2
f 96/6/2 94/6/2 97/6/2
f 94/6/2 62/6/2 98/6/2
f 97/6/2 94/6/2 98/6/2
f 61/6/2 95/6/2 99/6/2
f 95/7/2 96/7/2 99/7/2
f 96/6/2 97/6/2 100/6/2
f 99/7/2 96/7/2 100/7/2
f 97/7/2 98/7/2 101/7/2
f 100/6/2 97/6/2 101/6/2
f 98/6/2 62/6/2 102/6/2
f 101/7/2 98/7/2 102/7/2
f 61/6/2 99/6/2 103/6/2
f 100/6/2 101/6/2 103/6/2
f 101/6/2 102/6/2 103/6/2
f 99/6/2 100/6/2 103/6/2
f 103/6/2 102/6/2 104/6/2
f 104/6/2 102/6/2 105/6/2
f 102/6/2 62/6/2 106/6/2
f 105/6/2 102/6/2 106/6/2
f 61/6/2 103/6/2 107/6/2
f 103/2/2 104/2/2 107/2/2
f 104/6/2 105/6/2 108/6/2
f 107/2/2 104/2/2 108/2/2
f 105/7/2 106/7/2 109/7/2
f 108/6/2 105/6/2 109/6/2
f 106/6/2 62/6/2 110/6/2
f 109/7/2 106/7/2 110/7/2
f 61/6/2 107/6/2 111/6/2
f 108/6/2 109/6/2 111/6/2
f 109/6/2 110/6/2 111/6/2
f 107/6/2 108/6/2 111/6/2
f 111/6/2 110/6/2 112/6/2
f 112/6/2 110/6/2 113/6/2
f 110/6/2 62/6/2 114/6/2
f 113/6/2 110/6/2 114/6/2
f 61/6/2 111/6/2 115/6/2
f 111/4/2 112/4/2 115/4/2
f 112/6/2 113/6/2 116/6/2
f 115/4/2 112/4/2 116/4/2
f 113/4/2 114/4/2 117/4/2
f 116/6/2 113/6/2 117/6/2
f 114/6/2 62/6/2 118/6/2
f 117/4/2 114/4/2 118/4/2
f 61/6/2 115/6/2 119/6/2
f 116/6/2 117/6/2 119/6/2
f 117/6/2 118/6/2 119/6/2
f 115/6/2 116/6/2 119/6/2
f 118/6/2 62/6/2 120/6/2
f 119/6/2 118/6/2 120/6/2
f 123/6/3 122/6/3 121/6/3
f 124/6/3 122/6/3 123/6/3
f 125/6/3 122/6/3 124/6/3
f 126/6/3 122/6/3 125/6/3
f 127/6/3 122/6/3 126/6/3
f 128/6/3 122/6/3 127/6/3
f 129/6/3 122/6/3 128/6/3
f 130/6/3 122/6/3 129/6/3
f 131/6/3 122/6/3 130/6/3
f 132/6/3 122/6/3 131/6/3
f 133/6/3 122/6/3 132/6/3
f 134/6/3 122/6/3 133/6/3
f 135/6/3 122/6/3 134/6/3
f 136/6/3 122/6/3 135/6/3
f 137/6/3 123/6/3 121/6/3
f 137/7/3 124/7/3 123/7/3
f 138/6/3 125/6/3 124/6/3
f 138/7/3 124/7/3 137/7/3
f 139/7/3 126/7/3 125/7/3
f 139/6/3 125/6/3 138/6/3
f 140/6/3 127/6/3 126/6/3
f 140/7/3 126/7/3 139/7/3
f 141/2/3 128/2/3 127/2/3
f 141/6/3 127/6/3 140/6/3
f 142/6/3 129/6/3 128/6/3
f 142/2/3 128/2/3 141/2/3
f 143/7/3 130/7/3 129/7/3
f 143/6/3 129/6/3 142/6/3
f 144/6/3 131/6/3 130/6/3
f 144/7/3 130/7/3 143/7/3
f 145/3/3 132/3/3 131/3/3
f 145/6/3 131/6/3 144/6/3
f 146/6/3 133/6/3 132/6/3
f 146/3/3 132/3/3 145/3/3
f 147/7/3 134/7/3 133/7/3
f 147/6/3 133/6/3 146/6/3
f 148/6/3 135/6/3 134/6/3
f 148/7/3 134/7/3 147/7/3
f 149/7/3 136/7/3 135/7/3
f 149/6/3 135/6/3 148/6/3
f 150/6/3 122/6/3 136/6/3
f 150/7/3 136/7/3 149/7/3
f 151/6/3 149/6/3 148/6/3
f 151/6/3 148/6/3 147/6/3
f 151/6/3 150/6/3 149/6/3
f 151/6/3 147/6/3 146/6/3
f 151/6/3 146/6/3 145/6/3
f 151/6/3 145/6/3 144/6/3
f 151/6/3 144/6/3 143/6/3
f 151/6/3 143/6/3 142/6/3
f 151/6/3 142/6/3 141/6/3
f 151/6/3 141/6/3 140/6/3
f 151/6/3 140/6/3 139/6/3
f 151/6/3 139/6/3 138/6/3
f 151/6/3 138/6/3 137/6/3
f 151/6/3 137/6/3 121/6/3
f 152/6/3 150/6/3 151/6/3
f 153/6/3 150/6/3 152/6/3
f 154/6/3 150/6/3 153/6/3
f 155/6/3 150/6/3 154/6/3
f 156/6/3 150/6/3 155/6/3
f 157/6/3 150/6/3 156/6/3
f 158/6/3 150/6/3 157/6/3
f 159/6/3 150/6/3 158/6/3
f 160/6/3 150/6/3 159/6/3
f 161/6/3 150/6/3 160/6/3
f 162/6/3 150/6/3 161/6/3
f 163/6/3 150/6/3 162/6/3
f 164/6/3 122/6/3 150/6/3
f 164/6/3 150/6/3 163/6/3
f 165/6/3 151/6/3 121/6/3
f 165/7/3 152/7/3 151/7/3
f 166/6/3 153/6/3 152/6/3
f 166/7/3 152/7/3 165/7/3
f 167/5/3 154/5/3 153/5/3
f 167/6/3 153/6/3 166/6/3
f 168/6/3 155/6/3 154/6/3
f 168/5/3 154/5/3 167/5/3
f 169/7/3 156/7/3 155/7/3
f 169/6/3 155/6/3 168/6/3
f 170/6/3 157/6/3 156/6/3
f 170/7/3 156/7/3 169/7/3
f 171/7/3 158/7/3 157/7/3
f 171/6/3 157/6/3 170/6/3
f 172/6/3 159/6/3 158/6/3
f 172/7/3 158/7/3 171/7/3
f 173/5/3 160/5/3 159/5/3
f 173/6/3 159/6/3 172/6/3
f 174/6/3 161/6/3 160/6/3
f 174/5/3 160/5/3 173/5/3
f 175/2/3 162/2/3 161/2/3
f 175/6/3 161/6/3 174/6/3
f 176/6/3 163/6/3 162/6/3
f 176/2/3 162/2/3 175/2/3
f 177/3/3 164/3/3 163/3/3
f 177/6/3 163/6/3 176/6/3
f 178/6/3 122/6/3 164/6/3
f 178/3/3 164/3/3 177/3/3
f 179/6/3 175/6/3 174/6/3
f 179/6/3 177/6/3 176/6/3
f 179/6/3 178/6/3 177/6/3
f 179/6/3 174/6/3 173/6/3
f 179/6/3 173/6/3 172/6/3
f 179/6/3 172/6/3 171/6/3
f 179/6/3 171/6/3 170/6/3
f 179/6/3 170/6/3 169/6/3
f 179/6/3 169/6/3 168/6/3
f 179/6/3 168/6/3 167/6/3
f 179/6/3 167/6/3 166/6/3
f 179/6/3 166/6/3 165/6/3
f 179/6/3 165/6/3 121/6/3
f 179/6/3 176/6/3 175/6/3
f 180/6/3 122/6/3 178/6/3
f 180/6/3 178/6/3 179/6/3
f 181/6/4 182/6/4 183/6/4
f 183/6/4 182/6/4 184/6/4
f 184/6/4 182/6/4 185/6/4
f 185/6/4 182/6/4 186/6/4
f 186/6/4 182/6/4 187/6/4
f 187/6/4 182/6/4 188/6/4
f 188/6/4 182/6/4 189/6/4
f 189/6/4 182/6/4 190/6/4
f 190/6/4 182/6/4 191/6/4
f 191/6/4 182/6/4 192/6/4
f 192/6/4 182/6/4 193/6/4
f 193/6/4 182/6/4 194/6/4
f 194/6/4 182/6/4 195/6/4
f 195/6/4 182/6/4 196/6/4
f 181/6/4 183/6/4 197/6/4
f 183/7/4 184/7/4 197/7/4
f 184/6/4 185/6/4 198/6/4
f 197/7/4 184/7/4 198/7/4
f 185/3/4 186/3/4 199/3/4
f 198/6/4 185/6/4 199/6/4
f 186/6/4 187/6/4 200/6/4
f 199/3/4 186/3/4 200/3/4
f 187/5/4 188/5/4 201/5/4
f 200/6/4 187/6/4 201/6/4
f 188/6/4 189/6/4 202/6/4
f 201/5/4 188/5/4 202/5/4
f 189/7/4 190/7/4 203/7/4
f 202/6/4 189/6/4 203/6/4
f 190/6/4 191/6/4 204/6/4
f 203/7/4 190/7/4 204/7/4
f 191/7/4 192/7/4 205/7/4
f 204/6/4 191/6/4 205/6/4
f 192/6/4 193/6/4 206/6/4
f 205/7/4 192/7/4 206/7/4
f 193/5/4 194/5/4 207/5/4
f 206/6/4 193/6/4 207/6/4
f 194/6/4 195/6/4 208/6/4
f 207/5/4 194/5/4 208/5/4
f 195/2/4 196/2/4 209/2/4
f 208/6/4 195/6/4 209/6/4
f 196/6/4 182/6/4 210/6/4
f 209/2/4 196/2/4 210/2/4
f 208/6/4 209/6/4 211/6/4
f 207/6/4 208/6/4 211/6/4
f 209/6/4 210/6/4 211/6/4
f 206/6/4 207/6/4 211/6/4
f 205/6/4 206/6/4 211/6/4
f 204/6/4 205/6/4 211/6/4
f 203/6/4 204/6/4 211/6/4
f 202/6/4 203/6/4 211/6/4
f 201/6/4 202/6/4 211/6/4
f 200/6/4 201/6/4 211/6/4
f 199/6/4 200/6/4 211/6/4
f 198/6/4 199/6/4 211/6/4
f 197/6/4 198/6/4 211/6/4
f 181/6/4 197/6/4 211/6/4
f 211/6/4 210/6/4 212/6/4
f 212/6/4 210/6/4 213/6/4
f 213/6/4 210/6/4 214/6/4
f 214/6/4 210/6/4 215/6/4
f 215/6/4 210/6/4 216/6/4
f 216/6/4 210/6/4 217/6/4
f 217/6/4 210/6/4 218/6/4
f 218/6/4 210/6/4 219/6/4
f 219/6/4 210/6/4 220/6/4
f 220/6/4 210/6/4 221/6/4
f 221/6/4 210/6/4 222/6/4
f 222/6/4 210/6/4 223/6/4
f 210/6/4 182/6/4 224/6/4
f 223/6/4 210/6/4 224/6/4
f 181/6/4 211/6/4 225/6/4
f 211/7/4 212/7/4 225/7/4
f 212/6/4 213/6/4 226/6/4
f 225/7/4 212/7/4 226/7/4
f 213/2/4 214/2/4 227/2/4
f 226/6/4 213/6/4 227/6/4
f 214/6/4 215/6/4 228/6/4
f 227/2/4 214/2/4 228/2/4
f 215/5/4 216/5/4 229/5/4
f 228/6/4 215/6/4 229/6/4
f 216/6/4 217/6/4 230/6/4
f 229/5/4 216/5/4 230/5/4
f 217/5/4 218/5/4 231/5/4
f 230/6/4 217/6/4 231/6/4
f 218/6/4 219/6/4 232/6/4
f 231/5/4 218/5/4 232/5/4
f 219/7/4 220/7/4 233/7/4
f 232/6/4 219/6/4 233/6/4
f 220/6/4 221/6/4 234/6/4
f 233/7/4 220/7/4 234/7/4
f 221/5/4 222/5/4 235/5/4
f 234/6/4 221/6/4 235/6/4
f 222/6/4 223/6/4 236/6/4
f 235/5/4 222/5/4 236/5/4
f 223/3/4 224/3/4 237/3/4
f 236/6/4 223/6/4 237/6/4
f 224/6/4 182/6/4 238/6/4
f 237/3/4 224/3/4 238/3/4
f 234/6/4 235/6/4 239/6/4
f 236/6/4 237/6/4 239/6/4
f 237/6/4 238/6/4 239/6/4
f 233/6/4 234/6/4 239/6/4
f 232/6/4 233/6/4 239/6/4
f 231/6/4 232/6/4 239/6/4
f 230/6/4 231/6/4 239/6/4
f 229/6/4 230/6/4 239/6/4
f 228/6/4 229/6/4 239/6/4
f 227/6/4 228/6/4 239/6/4
f 226/6/4 227/6/4 239/6/4
f 225/6/4 226/6/4 239/6/4
f 181/6/4 225/6/4 239/6/4
f 235/6/4 236/6/4 239/6/4
f 238/6/4 182/6/4 240/6/4
f 239/6/4 238/6/4 240/6/4
f 243/6/5 242/6/5 241/6/5
f 244/6/5 242/6/5 243/6/5
f 245/6/6 246/6/6 247/6/6
f 247/6/6 246/6/6 248/6/6
